<svg width="106" height="26" viewBox="0 0 106 26" fill="none" xmlns="http://www.w3.org/2000/svg">
<g clip-path="url(#clip0_6951_109646)">
<path d="M6.52009 6.46826H0.674492C0.302172 6.46826 0 6.78186 0 7.16826V18.6016C0 19.1173 0.402447 19.5349 0.899322 19.5349H6.52009C9.49999 19.5349 11.916 17.0275 11.916 13.9349V12.0683C11.916 8.9752 9.49999 6.46826 6.52009 6.46826ZM8.76839 13.4683C8.76839 15.0148 7.5606 16.2683 6.07043 16.2683H4.04695C3.55008 16.2683 3.14763 15.8506 3.14763 15.3349V9.96826C3.14763 9.83946 3.24835 9.73493 3.37246 9.73493H6.07043C7.5606 9.73493 8.76839 10.9884 8.76839 12.5349V13.4683Z" fill="black"/>
<path d="M35.5211 6.70013V13.8303C35.5211 13.9409 35.3862 13.9895 35.3205 13.9027L29.8783 6.73373C29.7506 6.56526 29.555 6.4668 29.3486 6.4668H26.7532C26.629 6.4668 26.5283 6.57133 26.5283 6.70013V19.4168C26.5283 19.4812 26.5787 19.5335 26.6407 19.5335H29.4511C29.5752 19.5335 29.6759 19.4289 29.6759 19.3001V12.1699C29.6759 12.0593 29.8108 12.0108 29.8765 12.0976L35.3187 19.2665C35.4464 19.435 35.6421 19.5335 35.8484 19.5335H38.4439C38.568 19.5335 38.6687 19.4289 38.6687 19.3001V6.93346C38.6687 6.67586 38.4673 6.4668 38.2191 6.4668H35.7459C35.6218 6.4668 35.5211 6.57133 35.5211 6.70013Z" fill="black"/>
<path d="M47.8806 6H45.6323C42.6524 6 40.2363 8.5074 40.2363 11.6V14.4C40.2363 17.4926 42.6524 20 45.6323 20H47.8806C50.8605 20 53.2765 17.4926 53.2765 14.4V11.6C53.2765 8.5074 50.8609 6 47.8806 6ZM50.1289 13.9333C50.1289 15.4799 48.9211 16.7333 47.4309 16.7333H46.0819C44.5917 16.7333 43.384 15.4799 43.384 13.9333V12.0667C43.384 10.5201 44.5917 9.26667 46.0819 9.26667H47.4309C48.9211 9.26667 50.1289 10.5201 50.1289 12.0667V13.9333Z" fill="black"/>
<path d="M25.4543 18.8737L20.2387 6.97366C20.1658 6.80706 20.0057 6.7002 19.8295 6.7002H17.1239C17.0357 6.7002 16.9557 6.75386 16.9193 6.83693L11.499 19.2036C11.4311 19.3581 11.54 19.5335 11.7036 19.5335H14.653C14.8337 19.5335 14.9974 19.4211 15.0676 19.2479L15.841 17.3421C15.876 17.2557 15.9579 17.1993 16.0483 17.1993L21.0503 17.2002C21.1407 17.2002 21.2225 17.2567 21.2576 17.343L21.9726 19.1051C22.0778 19.3646 22.3228 19.5335 22.594 19.5335H25.0451C25.372 19.5335 25.5896 19.1826 25.4543 18.8737ZM19.7993 14.1659H17.2983C17.2178 14.1659 17.1634 14.081 17.1949 14.004L18.3415 11.1774C18.4189 10.987 18.6788 10.987 18.7561 11.1774L19.9028 14.004C19.9338 14.081 19.8794 14.1659 19.7993 14.1659Z" fill="black"/>
<path d="M101.447 6.46973H96.2203C96.1583 6.46973 96.1079 6.52199 96.1079 6.58639V15.8031V19.4202C96.1079 19.4846 96.1583 19.5369 96.2203 19.5369H97.5693C97.6314 19.5369 97.6817 19.4846 97.6817 19.4202V15.9197C97.6817 15.8553 97.7321 15.8031 97.7941 15.8031H101.504C103.999 15.8031 106.019 13.6947 106 11.1009C105.982 8.52819 103.927 6.46973 101.447 6.46973ZM101.459 14.1697H97.7941C97.7321 14.1697 97.6817 14.1175 97.6817 14.0531V8.21973C97.6817 8.15533 97.7321 8.10306 97.7941 8.10306H101.504C103.131 8.10306 104.451 9.48953 104.426 11.1835C104.401 12.8481 103.063 14.1697 101.459 14.1697Z" fill="black"/>
<path d="M63.255 12.3123L61.3444 11.9273C59.7157 11.6268 58.8897 10.9268 58.8897 9.84646C58.8897 8.432 60.0759 7.6578 61.9114 7.6578C63.8153 7.6578 64.9826 8.38626 65.2879 10.0289L65.2933 10.0574C65.3037 10.1125 65.35 10.1521 65.4035 10.1521H66.7664C66.8343 10.1521 66.8865 10.0905 66.8779 10.021L66.873 9.98133C66.7183 8.71666 66.1392 7.68486 65.198 6.997C64.3252 6.35953 63.1566 6.1626 61.8184 6.1626C59.0606 6.1626 57.2075 7.59013 57.2075 9.92346C57.2075 11.8097 58.4531 13.045 60.8084 13.4949L62.9965 13.9373C64.4691 14.2154 65.2479 14.935 65.2479 16.0186C65.2479 17.4914 64.0109 18.3034 62.0963 18.3034C60.9905 18.3034 60.0953 18.1681 59.4361 17.6253C58.7944 17.0971 58.3915 16.3285 58.2391 15.341L58.2346 15.3116C58.226 15.2551 58.1788 15.2136 58.1235 15.2136H56.7606C56.6936 15.2136 56.6414 15.2738 56.6486 15.3429L56.6527 15.3816C56.8024 16.8082 57.3739 17.9805 58.3056 18.7729C59.2328 19.5611 60.5242 19.8378 62.0409 19.8378C63.4574 19.8378 64.6647 19.5905 65.5326 18.8573C66.4103 18.1163 66.8739 17.0817 66.8739 15.8651C66.8748 13.9816 65.6571 12.7865 63.255 12.3123Z" fill="black"/>
<path d="M78.3455 6.58688V12.4193C78.3455 12.4837 78.2951 12.5359 78.2331 12.5359H70.8137C70.7516 12.5359 70.7013 12.4837 70.7013 12.4193V6.58688C70.7013 6.52248 70.6509 6.47021 70.5888 6.47021H69.2399C69.1778 6.47021 69.1274 6.52248 69.1274 6.58688V19.4202C69.1274 19.4846 69.1778 19.5369 69.2399 19.5369H70.5888C70.6509 19.5369 70.7013 19.4846 70.7013 19.4202V14.2859C70.7013 14.2215 70.7516 14.1693 70.8137 14.1693H78.2331C78.2951 14.1693 78.3455 14.2215 78.3455 14.2859V19.4202C78.3455 19.4846 78.3959 19.5369 78.4579 19.5369H79.8069C79.8689 19.5369 79.9193 19.4846 79.9193 19.4202V6.58688C79.9193 6.52248 79.8689 6.47021 79.8069 6.47021H78.4579C78.3959 6.47021 78.3455 6.52248 78.3455 6.58688Z" fill="black"/>
<path d="M88.6883 7.87015C90.7958 7.87015 92.5104 9.64955 92.5104 11.8368V14.1701C92.5104 16.3574 90.7958 18.1368 88.6883 18.1368H87.3393C85.2317 18.1368 83.5172 16.3574 83.5172 14.1701V11.8368C83.5172 9.64955 85.2317 7.87015 87.3393 7.87015H88.6883V7.87015ZM88.6883 6.23682H87.3393C84.3594 6.23682 81.9434 8.74422 81.9434 11.8368V14.1701C81.9434 17.2627 84.3594 19.7701 87.3393 19.7701H88.6883C91.6682 19.7701 94.0842 17.2627 94.0842 14.1701V11.8368C94.0838 8.74422 91.6682 6.23682 88.6883 6.23682Z" fill="black"/>
</g>
<defs>
<clipPath id="clip0_6951_109646">
<rect width="106" height="14" fill="white" transform="translate(0 6)"/>
</clipPath>
</defs>
</svg>
